HIERARCHY
ROOT Hips
{
	OFFSET 0.000000 0.000000 0.000000
	CHANNELS 6 Xposition Yposition Zposition Xrotation Yrotation Zrotation
	JOINT LeftUpLeg_virtual
	{
		OFFSET 0.000000 0.000000 0.000000
		CHANNELS 3 Xrotation Yrotation Zrotation
		JOINT LeftUpLeg
		{
			OFFSET 13.026900 -6.336304 -1.092800
			CHANNELS 3 Xrotation Yrotation Zrotation
			JOINT LeftLeg
			{
				OFFSET 0.524474 -46.096886 9.782700
				CHANNELS 3 Xrotation Yrotation Zrotation
				JOINT LeftFoot
				{
					OFFSET -0.524474 -53.427422 -12.948200
					CHANNELS 3 Xrotation Yrotation Zrotation
					JOINT LeftToeBase
					{
						OFFSET 0.192200 -14.009700 16.364100
						CHANNELS 3 Xrotation Yrotation Zrotation
						JOINT LeftToe_End
						{
							OFFSET -1.784700 -0.561700 9.474800
							CHANNELS 3 Xrotation Yrotation Zrotation
							End Site
							{
								OFFSET 0 0 0
							}
						}
					}
				}
			}
		}
	}
	JOINT RightUpLeg_virtual
	{
		OFFSET 0.000000 0.000000 0.000000
		CHANNELS 3 Xrotation Yrotation Zrotation
		JOINT RightUpLeg
		{
			OFFSET -12.883000 -6.336304 -1.092800
			CHANNELS 3 Xrotation Yrotation Zrotation
			JOINT RightLeg
			{
				OFFSET -0.524587 -46.096825 9.782800
				CHANNELS 3 Xrotation Yrotation Zrotation
				JOINT RightFoot
				{
					OFFSET 0.524587 -53.427383 -12.948300
					CHANNELS 3 Xrotation Yrotation Zrotation
					JOINT RightToeBase
					{
						OFFSET -0.192200 -14.009700 16.364100
						CHANNELS 3 Xrotation Yrotation Zrotation
						JOINT RightToe_End
						{
							OFFSET 1.784700 -0.561700 9.474800
							CHANNELS 3 Xrotation Yrotation Zrotation
							End Site
							{
								OFFSET 0 0 0
							}
						}
					}
				}
			}
		}
	}
	JOINT Spine_virtual
	{
		OFFSET 0.000000 0.000000 0.000000
		CHANNELS 3 Xrotation Yrotation Zrotation
		JOINT Spine
		{
			OFFSET 0.072000 7.257294 -0.789700
			CHANNELS 3 Xrotation Yrotation Zrotation
			JOINT Spine1
			{
				OFFSET 0.000000 12.508769 -0.658067
				CHANNELS 3 Xrotation Yrotation Zrotation
				JOINT Spine1_split
				{
					OFFSET 0.000000 12.508769 -0.658067
					CHANNELS 3 Xrotation Yrotation Zrotation
					JOINT Spine2
					{
						OFFSET 0.000000 12.508769 -0.658067
						CHANNELS 3 Xrotation Yrotation Zrotation
						JOINT Neck_virtual
						{
							OFFSET 0.000000 0.000000 0.000000
							CHANNELS 3 Xrotation Yrotation Zrotation
							JOINT Neck
							{
								OFFSET 0.000000 14.033295 7.520400
								CHANNELS 3 Xrotation Yrotation Zrotation
								JOINT Head
								{
									OFFSET 0.000000 8.198502 5.703100
									CHANNELS 3 Xrotation Yrotation Zrotation
									JOINT HeadTop_End
									{
										OFFSET 0.000000 17.760803 13.332701
										CHANNELS 3 Xrotation Yrotation Zrotation
										End Site
										{
											OFFSET 0 0 0
										}
									}
								}
							}
						}
						JOINT LeftShoulder_virtual
						{
							OFFSET 0.000000 0.000000 0.000000
							CHANNELS 3 Xrotation Yrotation Zrotation
							JOINT LeftShoulder
							{
								OFFSET 6.292450 5.785301 -0.669000
								CHANNELS 3 Xrotation Yrotation Zrotation
								JOINT LeftShoulder_split
								{
									OFFSET 6.292450 5.785301 -0.669000
									CHANNELS 3 Xrotation Yrotation Zrotation
									JOINT LeftArm
									{
										OFFSET 13.907140 -6.093903 1.965100
										CHANNELS 3 Xrotation Yrotation Zrotation
										JOINT LeftForeArm
										{
											OFFSET 34.140198 0.000000 0.000000
											CHANNELS 3 Xrotation Yrotation Zrotation
											JOINT LeftHand
											{
												OFFSET 40.960209 0.000000 0.000000
												CHANNELS 3 Xrotation Yrotation Zrotation
												End Site
												{
													OFFSET 0 0 0
												}
											}
										}
									}
								}
							}
						}
						JOINT RightShoulder_virtual
						{
							OFFSET 0.000000 0.000000 0.000000
							CHANNELS 3 Xrotation Yrotation Zrotation
							JOINT RightShoulder
							{
								OFFSET -6.292450 5.785301 -0.669000
								CHANNELS 3 Xrotation Yrotation Zrotation
								JOINT RightShoulder_split
								{
									OFFSET -6.292450 5.785301 -0.669000
									CHANNELS 3 Xrotation Yrotation Zrotation
									JOINT RightArm
									{
										OFFSET -13.907140 -6.093903 1.965100
										CHANNELS 3 Xrotation Yrotation Zrotation
										JOINT RightForeArm
										{
											OFFSET -34.140198 0.000000 0.000000
											CHANNELS 3 Xrotation Yrotation Zrotation
											JOINT RightHand
											{
												OFFSET -40.960209 0.000000 0.000000
												CHANNELS 3 Xrotation Yrotation Zrotation
												End Site
												{
													OFFSET 0 0 0
												}
											}
										}
									}
								}
							}
						}
					}
				}
			}
		}
	}
}
MOTION
Frames: 5
Frame Time: 0.03333333
-14.842522 75.932358 -3.859474 0.000000 0.000000 0.000000 -2.871787 -8.068517 -1.900410 -67.737158 -11.068584 7.054014 75.606028 -16.697231 -4.517524 3.111863 -4.258454 0.523294 -0.795211 0.981507 0.222774 0.000000 0.000000 0.000000 -3.637782 -1.257858 -1.572273 -15.675451 4.713349 -1.510879 88.824841 -6.035518 -4.330717 -27.593782 -3.315051 22.861500 -40.836198 -0.771166 -1.146583 0.000000 0.000000 0.000000 -6.982844 0.330561 -2.548947 11.438718 2.368299 -2.141234 6.118031 0.712703 -3.282858 0.301249 -0.794785 -0.021133 0.000000 0.000000 0.000000 5.730116 0.827608 -2.880222 1.721609 -3.426049 9.772694 12.413820 1.716422 -6.073163 0.000000 0.000000 0.000000 5.418921 0.575515 -2.360219 -7.651528 -39.821936 -7.075821 -2.141661 -4.111271 -2.937061 -37.951181 -14.765945 -33.626749 -93.444829 -55.607845 -88.706003 0.000000 0.000000 0.000000 5.501764 0.499923 -2.620088 -8.557188 30.702991 11.641465 -1.793569 -2.442243 5.245125 -48.323722 6.386009 39.163731 -129.957272 54.675248 127.813958 0.000000 0.000000 0.000000 
-15.079370 81.805283 -3.041866 0.000000 0.000000 0.000000 -0.959786 -6.511548 -0.847600 -61.962192 -10.457076 5.271669 66.153449 -16.940882 -3.675500 4.359348 -4.911809 -0.018705 -2.796663 0.861441 0.489057 0.000000 0.000000 0.000000 -1.518987 0.842603 -0.769935 -12.631775 2.077223 -1.352309 81.510412 -6.816619 -4.375560 -27.698229 -3.311750 20.970197 -37.476961 0.009716 -1.617643 0.000000 0.000000 0.000000 -4.776813 1.564356 -1.744763 10.404583 1.990603 -2.282423 4.036509 0.321241 -3.814388 1.116792 -0.604556 0.084878 0.000000 0.000000 0.000000 3.649284 0.378170 -3.044773 -5.168682 -3.765407 8.593589 12.040804 0.835290 -6.390620 0.000000 0.000000 0.000000 3.237864 0.297059 -2.675440 -6.793177 -35.120983 -6.301557 -1.702425 -5.570983 -1.592744 -27.957573 -13.555438 -24.314647 -111.686229 -62.223775 -110.125770 0.000000 0.000000 0.000000 3.383561 0.054339 -3.055900 -7.566087 25.766884 8.734482 -1.777345 -1.210755 3.983380 -39.115073 11.023837 35.418410 -148.145150 57.621231 147.835784 0.000000 0.000000 0.000000 
-15.326125 88.977074 -1.660866 0.000000 0.000000 0.000000 1.210653 -5.219790 -0.087284 -55.445249 -9.639122 4.371594 54.066487 -16.888396 -3.500345 7.164975 -5.108377 -0.270023 -3.843720 0.649498 0.688882 0.000000 0.000000 0.000000 0.866301 1.941507 -0.162601 -8.874973 -0.262791 -0.994513 70.389826 -7.692057 -4.655988 -25.243577 -2.338844 18.248333 -35.497808 0.830110 -1.766831 0.000000 0.000000 0.000000 -2.117356 2.390896 -1.105733 8.757044 1.954988 -2.186226 1.798938 0.276627 -4.268905 1.292593 -0.793533 0.414380 0.000000 0.000000 0.000000 1.599807 0.115521 -3.143431 -14.575511 -4.334654 7.024928 11.484920 0.013054 -7.077214 0.000000 0.000000 0.000000 1.021609 0.308392 -2.991854 -5.928600 -28.732519 -5.507024 -1.658731 -5.545768 0.120059 -20.652187 -9.506728 -16.242972 -120.320954 -71.442344 -122.203026 0.000000 0.000000 0.000000 1.364309 -0.112120 -3.475077 -6.946792 20.253888 5.746557 -1.961418 0.504503 2.559279 -27.445343 12.371670 28.272262 -163.676563 63.071442 165.600272 0.000000 0.000000 0.000000 
-15.513562 96.609032 0.125912 0.000000 0.000000 0.000000 3.498361 -4.579248 0.018733 -48.616532 -8.478448 4.652848 40.915439 -16.248224 -3.823477 10.160910 -4.631658 -0.213605 -3.448817 0.441327 0.682042 0.000000 0.000000 0.000000 3.261004 1.945851 -0.028456 -5.094645 -1.972202 -0.284202 56.620779 -8.139956 -5.212046 -19.941977 -0.319091 15.028549 -35.268662 1.665789 -1.611855 0.000000 0.000000 0.000000 0.576254 2.662224 -0.974009 6.910203 2.305876 -1.827147 -0.236022 0.648972 -4.433708 1.403756 -1.024244 0.740383 0.000000 0.000000 0.000000 -0.280221 0.168687 -3.025460 -26.008537 -4.960201 5.179827 10.986815 -0.681063 -7.945840 0.000000 0.000000 0.000000 -0.850465 0.611342 -3.179197 -5.068560 -21.240464 -4.497794 -2.524189 -4.010156 1.229020 -16.760833 -3.825014 -10.026576 -60.980428 -85.058818 -66.780658 0.000000 0.000000 0.000000 -0.287771 0.107690 -3.664454 -6.776194 14.468327 3.008623 -2.269510 1.896606 1.436268 -14.882231 8.948021 19.739293 174.525977 73.999629 -169.878443 0.000000 0.000000 0.000000 
-15.603542 103.475395 2.033981 0.000000 0.000000 0.000000 5.538407 -4.938402 -0.492302 -42.307213 -7.054435 6.002946 29.381268 -15.441987 -4.102108 12.216379 -3.871179 -0.425694 -2.528399 0.291254 0.638471 0.000000 0.000000 0.000000 5.309489 1.470295 -0.569499 -1.896514 -2.959356 0.777749 43.448264 -7.780170 -5.722920 -12.232460 2.461858 11.709262 -37.633362 2.519985 -1.330579 0.000000 0.000000 0.000000 2.739369 2.347671 -1.393534 5.383205 2.979123 -1.238596 -1.678627 1.355053 -4.162386 1.250448 -1.279788 0.710969 0.000000 0.000000 0.000000 -1.740415 0.537205 -2.609184 -38.101654 -5.294795 3.337172 10.866235 -1.306586 -8.824001 0.000000 0.000000 0.000000 -2.145661 1.217038 -3.066521 -4.371549 -13.642141 -3.104721 -4.211353 -1.889251 1.818718 -15.526722 2.947642 -5.589837 22.837595 -64.288602 12.234360 0.000000 0.000000 0.000000 -1.446275 0.727682 -3.435839 -7.030219 8.839302 0.736258 -2.460305 2.705038 0.867420 -4.081641 1.009958 12.207379 77.117747 79.346212 -69.275884 0.000000 0.000000 0.000000 
